PathFileType	4	(X/Y/Z)	Patient4_TMGait_0pt6_02_left_29.trc.trc
DataRate	CameraRate	NumFrames	NumMarkers	Units	OrigDataRate	OrigDataStartFrame	OrigNumFrames
82.840236686391	82.840236686391	4	33	mm	82.840236686391	53	       141
Frame#	Time	Sacral			L.Shoulder			Chest			R.Shoulder			Neck			R.ASIS			L.ASIS			R.Thigh.Superior			R.Thigh.Lateral			R.Thigh.Inferior			R.Patella			L.Thigh.Superior			L.Thigh.Lateral			L.Thigh.Inferior			L.Patella			L.Shank.Superior			L.Shank.Lateral			L.Shank.Inferior			R.Shank.Superior			R.Shank.Lateral			R.Shank.Inferior			R.Heel			R.Midfoot.Superior			R.Midfoot.Lateral			R.Toe			L.Heel			L.Midfoot.Lateral			L.Midfoot.Superior			L.Toe			L.Elbow			L.Wrist			R.Elbow			R.Wrist			
		X1	Y1	Z1	X2	Y2	Z2	X3	Y3	Z3	X4	Y4	Z4	X5	Y5	Z5	X6	Y6	Z6	X7	Y7	Z7	X8	Y8	Z8	X9	Y9	Z9	X10	Y10	Z10	X11	Y11	Z11	X12	Y12	Z12	X13	Y13	Z13	X14	Y14	Z14	X15	Y15	Z15	X16	Y16	Z16	X17	Y17	Z17	X18	Y18	Z18	X19	Y19	Z19	X20	Y20	Z20	X21	Y21	Z21	X22	Y22	Z22	X23	Y23	Z23	X24	Y24	Z24	X25	Y25	Z25	X26	Y26	Z26	X27	Y27	Z27	X28	Y28	Z28	X29	Y29	Z29	X30	Y30	Z30	X31	Y31	Z31	X32	Y32	Z32	X33	Y33	Z33	

53	36.087714285714	883.905393257974	1021.805791845064	420.743703297825	1101.017075274048	1427.549930574996	223.559804672782	1190.101981594099	1358.158014391333	391.805528673039	1105.451082150322	1449.480181707986	555.789581026293	1101.066329416938	1497.019750520267	371.015581025560	1103.625510798158	955.470508335694	546.703907516595	1101.065828898036	958.726566090226	272.871559356127	1192.409904315626	794.283177928447	527.169908046375	1157.289183733350	675.743594673043	608.014943525876	1250.892385869582	638.164886669299	532.289750166948	1277.755648688629	529.232853338250	559.421989274276	1140.408742297759	750.870970862009	304.850130526489	1049.283591515183	638.105395173886	248.712569654257	1132.580914262372	559.386838658302	313.187172575248	1130.413055090662	490.216606359760	323.489089257389	1103.098955077003	419.664748418729	317.462041717232	1011.425856934991	304.676457211886	271.118010555175	1064.661276539872	195.549321511048	344.897002485581	1210.884755978890	448.448853442824	568.394075915774	1095.620334285371	394.541822837182	628.572500700130	1097.340171498325	283.630762278186	583.804990925556	908.473035781140	184.132864926991	554.815189286351	1083.695056512557	169.873968694146	607.844995976544	975.277834286814	149.483918764145	637.309795676391	1168.481502542102	77.657961134915	649.874736854751	936.067262595414	39.462673895925	391.710753552677	1011.251127206827	35.831365230458	312.013647355333	1093.791207934204	96.887343998400	338.816277662191	1222.749981044580	45.430447450375	313.833402514237	1084.120152193185	1073.499269260397	107.487183864560	1192.669849311682	835.537309122165	111.548873413170	1020.769531031490	1118.967256721499	693.693334899194	1117.925469404324	876.558532287812	685.503488622378	
54	36.099785714286	881.927874159859	1021.596512983178	419.591601998409	1100.940356709877	1427.463676325797	223.085944711739	1189.033739582786	1357.610044053429	391.644285326491	1103.783189301280	1448.738505609466	555.303302854271	1100.450742033691	1496.719559198217	370.676276028067	1101.437565546284	955.945261791922	546.352432258685	1099.864179019888	958.495020724949	272.347800915687	1191.760212529252	796.722518302057	526.595621228253	1158.671160849681	678.213804560896	608.016912499682	1252.000680304619	641.503690012790	531.545088236147	1281.250511005676	533.970063898830	559.120881060944	1137.865323250265	750.073732695567	305.731186862046	1046.598098450608	637.751380215380	248.620179688400	1128.719295194616	558.532811695464	313.961963506502	1125.887538894514	489.361593564523	324.399123969655	1098.433709785826	419.006243970140	318.160829892169	1006.576965956970	304.474910942658	271.105303441590	1058.289909122382	195.085925682171	345.396183421680	1217.379774053097	451.525367141756	569.120448662881	1105.107329974796	393.083289451923	630.642439430395	1111.142700623022	282.008416998573	586.375860637842	926.473821927106	174.860008627535	559.500788864227	1102.582746165383	167.294721856641	611.006408907613	995.291052965608	142.911703343543	641.577355666025	1191.111506283321	78.395529353244	652.504747782991	928.824800385814	39.480446777456	391.761559666489	1004.011272938291	35.867009685342	312.086708592206	1086.640952940784	96.727488212478	339.061749585089	1215.590627638530	45.028321789311	313.889740576570	1089.508854300560	1074.209892765998	104.785472732916	1207.329561201344	840.539733301616	109.410238436796	1014.305162514884	1119.058221847018	692.736725578548	1094.913391292768	870.042887403085	693.451508994671	
55	36.111857142857	879.907157109148	1021.322418680361	418.520983501481	1100.933450506490	1427.192879495141	222.736084258506	1188.020216641991	1356.897700916909	391.619357519701	1102.190701034407	1447.915349271509	554.919726443967	1099.908882700992	1496.278279805233	370.430585053860	1099.130486350687	956.166064076540	546.157648965411	1098.674941680856	958.168922010796	271.969794012499	1190.755181263549	798.779609903031	526.148232053875	1159.493219150018	680.360524435468	608.094748159952	1252.527595075544	644.425434882547	530.923356294054	1284.077915363179	538.436232356089	558.920734531264	1135.403204067771	749.259091785339	306.634050352910	1044.012937727528	637.335009721681	248.595739693874	1124.992984091838	557.663202957042	314.753563307035	1121.526788656090	488.466788209098	325.317013938116	1093.884660651204	418.284700541556	318.868972223374	1001.809821832664	304.248560525645	271.094618867855	1051.935319728435	194.583282703393	345.889173356908	1223.389386418161	454.429678047177	569.862395286921	1114.389901258274	391.374074226282	632.614843299651	1125.040357448993	280.338162314633	588.791494277826	945.150047014286	165.345876739298	563.775524873136	1121.839186054717	164.858626018154	613.924560003985	1015.852544583701	136.310922642564	645.482893348151	1214.118543654796	79.640764662275	654.987480767519	921.586686770000	39.497264979492	391.799249578735	996.767700750824	35.891569660749	312.146838997829	1079.483407970020	96.566049488850	339.298918148028	1208.429358380362	44.621892380291	313.950609465710	1094.490294035489	1074.876790674780	102.212194254904	1221.751115870038	846.053504617297	107.618357409490	1008.143197565769	1119.154248452484	691.792920287996	1072.431978978336	865.180979154084	700.731091204015	
56	36.123928571429	877.866707773935	1021.026238892481	417.526156960128	1100.990643233246	1426.758642513654	222.511915843267	1187.073162876812	1356.058628923430	391.730363867264	1100.699378089612	1447.058373783035	554.649385684829	1099.445306911459	1495.724842632298	370.276556627026	1096.721086304366	956.154264317226	546.117225476668	1097.482976886260	957.757713597469	271.745034950678	1189.388935617664	800.460556450883	525.845239219115	1159.720154892216	682.170256489059	608.269572134029	1252.486548363071	646.933284095160	530.496385154433	1286.226797383421	542.613797209565	558.870203673478	1133.008737208616	748.429846409311	307.502796420324	1041.461611531583	636.874276175121	248.637605296170	1121.342677668291	556.780561999075	315.533968941454	1117.266478083805	487.546833507200	326.220904156931	1089.390642542569	417.519135861498	319.567493587782	997.062024088037	304.009483092055	271.092275943466	1045.581387765909	194.058108933689	346.362399273088	1228.884695448542	457.170259191671	570.619381411399	1123.434050761935	389.476491691206	634.473465686848	1138.940807974924	278.731945708240	591.001350604848	964.404323355443	155.847908301882	567.565660789109	1141.335795065940	162.692310988468	616.518472704389	1036.843454546502	129.849149196670	648.921992376700	1237.307579299308	81.444767669375	657.153084731078	914.348835559975	39.513693394012	391.820589121753	989.518092978694	35.905453851132	312.192017966535	1072.312032434498	96.408241667922	339.520170246062	1201.259740352136	44.226118978937	314.012399602615	1099.054268578195	1075.488524796119	99.787119609133	1235.848877218062	852.093248031317	106.176261719108	1002.224565277475	1119.340925422132	690.913585574640	1050.802870470194	861.938366139607	707.233582504427	
